<?xml version="1.0" encoding="UTF-8" standalone="no"?>
<!-- Created with Inkscape (http://www.inkscape.org/) -->

<svg
   version="1.1"
   id="svg1"
   width="652.79999"
   height="268.79999"
   viewBox="0 0 652.79999 268.79999"
   sodipodi:docname="EK_Logo_horiz_white.eps"
   xmlns:inkscape="http://www.inkscape.org/namespaces/inkscape"
   xmlns:sodipodi="http://sodipodi.sourceforge.net/DTD/sodipodi-0.dtd"
   xmlns="http://www.w3.org/2000/svg"
   xmlns:svg="http://www.w3.org/2000/svg">
  <defs
     id="defs1" />
  <sodipodi:namedview
     id="namedview1"
     pagecolor="#ffffff"
     bordercolor="#000000"
     borderopacity="0.25"
     inkscape:showpageshadow="2"
     inkscape:pageopacity="0.0"
     inkscape:pagecheckerboard="0"
     inkscape:deskcolor="#d1d1d1">
    <inkscape:page
       x="0"
       y="0"
       inkscape:label="1"
       id="page1"
       width="652.79999"
       height="268.79999"
       margin="0"
       bleed="0" />
  </sodipodi:namedview>
  <g
     id="g1"
     inkscape:groupmode="layer"
     inkscape:label="1">
    <g
       id="group-R5">
      <path
         id="path2"
         d="m 3995.75,620.059 h -26.04 c -284.61,1.179 -385.8,240.531 -385.8,464.491 v 317.45 1.78 18.35 l -3.84,0.87 c -5.62,11.85 -16.87,19.25 -33.73,22.2 -10.36,2.07 -39.35,5.92 -52.96,0.59 -1.48,-0.88 -2.66,-1.48 -3.55,-2.07 l -3.25,-2.37 -197.05,-518.631 -76.33,489.351 c -2.66,18.04 -15.08,29.28 -36.98,33.13 -10.35,2.07 -39.35,5.92 -52.96,0.59 -1.48,-0.88 -2.66,-1.48 -3.55,-2.07 l -3.25,-2.37 -0.3,-1.18 c -6.8,-22.79 -99.41,-329.29 -156.8,-510.361 -13.32,-40.821 47.93,-105.02 80.18,-88.45 26.62,84.911 68.93,229.881 103.25,342.601 l 81.95,-407.991 c 2.67,-18.047 15.39,-29.289 36.99,-33.141 10.35,-2.078 39.94,-5.617 53.25,0 1.18,0.602 2.37,1.192 3.25,1.781 l 3.26,2.371 162.42,402.95 -3.55,-65.38 c 0,-259.472 126.04,-561.538 480.18,-567.749 v -0.289 c 0.3,0 0.3,0 0.59,0 h 0.3 c 0.29,0 0.29,0 0.59,0 0.3,0 0.59,0 0.59,0 1.48,0 2.96,0 4.14,0.289 28.41,1.48 42.9,16.847 43.2,44.969 0.3,11.539 -1.48,45.269 -11.54,55.32 l -2.66,2.969"
         style="fill:#ffffff;fill-opacity:1;fill-rule:nonzero;stroke:none"
         transform="matrix(0.13333333,0,0,-0.13333333,0,268.8)" />
      <path
         id="path3"
         d="m 2157.08,1300.7 c 39.3,0 71.15,31.85 71.15,71.16 0,39.3 -31.85,71.15 -71.15,71.15 -39.3,0 -71.16,-31.85 -71.16,-71.15 0,-39.31 31.86,-71.16 71.16,-71.16"
         style="fill:#ffffff;fill-opacity:1;fill-rule:nonzero;stroke:none"
         transform="matrix(0.13333333,0,0,-0.13333333,0,268.8)" />
      <path
         id="path4"
         d="m 974.742,723.012 c 18.938,-22.782 46.158,-35.5 76.338,-35.5 47.33,0 87.27,21.898 126.92,63.597 l 0.29,0.313 v 0.277 c 0.6,0.602 1.19,0.903 1.48,1.492 19.83,23.071 17.46,44.079 -4.73,63.61 -8.29,7.988 -35.21,28.988 -49.11,28.109 l -3.85,-0.301 -2.07,-2.371 -18.05,-20.117 -2.36,-2.66 c -16.87,-16.859 -32.55,-27.512 -46.75,-28.402 -4.73,7.98 -12.13,36.691 -1.77,97.05 l 60.65,325.141 c -3.26,32.54 -74.56,67.45 -204.144,-4.74 -1.188,-0.6 -2.074,-1.17 -3.258,-1.78 -39.051,-23.36 -75.441,-50 -110.058,-78.4 -0.297,0 -0.887,-0.29 -1.18,-0.59 l 0.293,-0.29 c -18.344,-15.39 -24.262,-31.95 -17.16,-49.12 0,-0.88 0.59,-2.06 1.48,-3.25 1.774,-4.14 4.735,-8.58 8.281,-13.01 7.106,-8.89 30.477,-33.73 44.676,-34.92 l 3.848,-0.29 23.078,19.52 h 0.297 l 2.363,2.08 c 41.125,33.72 85.504,64.49 132.25,88.75 L 949.301,906.738 c -14.793,-84.617 -6.215,-146.449 25.441,-183.726"
         style="fill:#ffffff;fill-opacity:1;fill-rule:nonzero;stroke:none"
         transform="matrix(0.13333333,0,0,-0.13333333,0,268.8)" />
      <path
         id="path5"
         d="m 1155.92,1371.85 c 0,36.79 -29.82,66.61 -66.6,66.61 -36.78,0 -66.6,-29.82 -66.6,-66.61 0,-36.78 29.82,-66.6 66.6,-66.6 36.78,0 66.6,29.82 66.6,66.6"
         style="fill:#ffffff;fill-opacity:1;fill-rule:nonzero;stroke:none"
         transform="matrix(0.13333333,0,0,-0.13333333,0,268.8)" />
      <path
         id="path6"
         d="m 1857.58,968.57 c -4.14,5.328 -8.28,10.649 -12.42,15.981 -6.51,8.289 -13.91,17.449 -22.19,26.619 -11.24,13.32 -23.67,27.22 -35.5,40.54 -2.96,3.25 -5.92,6.51 -8.88,9.76 -8.88,9.77 -17.16,18.94 -24.56,27.22 -5.62,6.52 -10.65,12.13 -14.79,17.16 -41.42,48.22 -75.74,96.45 -75.74,138.76 0,62.73 54.14,100 106.81,100 27.21,0 52.36,-6.5 79.29,-32.55 1.47,-1.47 2.66,-2.95 4.14,-4.13 19.82,-19.84 40.53,-20.13 61.54,-1.49 8.87,7.4 33.13,31.36 34.02,45.27 v 4.13 l -18.05,20.72 -3.25,3.25 -0.89,1.19 c -36.69,36.98 -86.69,67.16 -156.8,67.16 -103.55,0 -210.36,-76.03 -210.36,-203.55 0,-68.34 36.98,-128.7 83.73,-186.1 3.84,-4.74 7.69,-9.17 11.54,-13.89 5.91,-6.82 12.42,-14.22 19.52,-22.19 3.26,-3.86 6.51,-7.7 9.77,-11.26 2.66,-2.96 5.62,-5.91 8.28,-9.17 2.96,-3.25 5.92,-6.5 8.88,-9.77 11.24,-12.421 22.48,-24.839 33.43,-37.558 0,-0.301 0.29,-0.594 0.59,-0.891 2.37,-2.961 5.03,-5.922 7.69,-8.871 h 0.3 c 7.99,-9.172 15.38,-18.64 22.78,-27.808 0.3,-0.59 0.59,-1.192 1.18,-1.782 32.25,-41.129 55.62,-82.25 55.62,-121.011 0,-54.438 -44.38,-99.098 -99.11,-99.098 -54.73,0 -99.11,44.66 -99.11,99.098 0,23.671 0,37.871 35.5,74.261 v 0.289 c 2.37,2.371 3.85,4.45 5.62,6.52 0.6,0.59 0.89,0.883 1.48,1.473 15.39,19.527 13.91,39.058 -4.73,57.699 -7.69,8.578 -32.84,31.359 -46.75,31.648 h -4.14 l -3.25,-3.25 c -0.59,-0.59 -1.19,-1.179 -1.48,-1.469 l -1.78,-1.492 -5.32,-5.316 -0.89,-0.594 c -2.66,-2.668 -5.03,-5.039 -7.69,-7.398 l -0.3,-0.59 -0.29,-0.59 -0.89,-0.59 c -4.14,-4.449 -7.99,-8.582 -11.84,-12.73 -3.84,-4.149 -7.39,-8.282 -10.94,-12.129 -0.3,-0.602 -0.89,-1.172 -1.48,-1.781 -1.78,-2.071 -3.55,-4.442 -5.33,-6.79 -0.89,-1.191 -1.77,-2.082 -2.66,-3.269 -0.89,-1.18 -2.07,-2.652 -2.96,-4.133 -1.48,-2.078 -2.66,-4.137 -4.14,-5.918 -2.37,-3.551 -4.44,-6.801 -6.21,-10.051 -0.3,0 -0.3,-0.308 -0.3,-0.308 -0.89,-1.473 -1.48,-2.961 -2.37,-4.141 -0.88,-1.48 -1.48,-2.949 -2.07,-4.441 -0.59,-0.879 -0.89,-1.469 -1.18,-2.071 -1.78,-3.546 -3.26,-6.796 -4.44,-9.757 -0.59,-1.469 -1.18,-2.961 -1.77,-4.442 -0.89,-2.078 -1.48,-4.14 -2.07,-6.211 -0.6,-1.476 -1.19,-2.957 -1.48,-4.429 -0.3,-1.778 -0.89,-3.27 -1.19,-5.039 -0.29,-0.598 -0.29,-1.188 -0.59,-1.782 -0.3,-1.187 -0.59,-2.359 -0.89,-3.84 -0.29,-1.187 -0.59,-2.066 -0.59,-3.25 -0.59,-2.07 -0.89,-3.847 -1.18,-5.929 -0.59,-3.539 -1.19,-7.391 -1.48,-10.93 -0.3,-0.898 -0.3,-1.777 -0.3,-2.68 -0.89,-7.679 -1.18,-15.968 -1.18,-24.55 0,-6.809 0.29,-13.309 1.18,-19.821 -0.29,-0.289 -0.29,-0.597 0,-0.886 0.3,-3.551 0.59,-6.801 1.19,-10.051 0.29,-1.781 0.59,-3.551 0.88,-5.039 0.3,-1.782 0.6,-3.25 0.89,-5.032 0,-0.589 0.3,-1.468 0.59,-2.058 0,-1.192 0.3,-2.66 0.89,-3.852 v -0.3 c 0,-0.879 0.3,-1.469 0.59,-2.372 0.3,-1.777 0.89,-3.539 1.48,-5.316 0.3,-1.773 0.89,-3.551 1.48,-5.332 0.59,-1.77 1.18,-3.551 1.78,-5.328 1.18,-3.84 2.66,-7.391 4.14,-11.242 0,-0.282 0.29,-0.879 0.59,-1.469 0,0 0,-0.301 0.3,-0.59 2.66,-5.922 5.32,-11.851 8.57,-17.762 1.19,-2.961 2.96,-5.621 4.44,-7.988 0,0 0,-0.281 0.3,-0.281 1.77,-2.969 3.55,-5.641 5.32,-8.59 0,0 0.3,-0.301 0.6,-0.59 1.77,-2.672 3.25,-5.039 5.32,-7.39 1.78,-2.68 3.85,-5.04 5.92,-7.399 2.66,-3.269 5.62,-6.519 8.28,-9.769 1.78,-1.481 3.26,-3.25 4.74,-4.731 4.73,-4.742 9.46,-8.871 14.49,-13.019 0.3,-0.293 0.59,-0.59 0.89,-0.903 0.3,-0.277 0.3,-0.277 0.59,-0.57 34.62,-28.117 79,-44.969 127.22,-44.969 111.84,0 202.66,91.11 202.66,202.649 0,61.839 -27.21,116.871 -65.08,168.339 -1.19,1.782 -2.67,3.864 -4.15,5.922"
         style="fill:#ffffff;fill-opacity:1;fill-rule:nonzero;stroke:none"
         transform="matrix(0.13333333,0,0,-0.13333333,0,268.8)" />
      <path
         id="path7"
         d="m 3339.53,684.539 -26.03,-0.277 h -52.37 c -23.96,0 -46.15,1.179 -67.45,3.547 h -0.3 c -78.1,8.57 -138.16,32.242 -183.73,65.671 -33.72,24.559 -59.46,54.45 -78.99,87.29 -11.83,19.511 -21.3,39.941 -28.7,61.23 -21.3,58.578 -28.7,122.49 -28.7,182.55 v 317.45 3.55 c -0.59,21.9 -13.31,35.21 -37.57,39.65 -10.35,2.07 -39.35,5.92 -52.96,0.59 -1.48,-0.88 -2.66,-1.48 -3.55,-2.07 l -3.25,-2.37 -214.8,-588.159 -58.58,558.879 c -2.66,18.04 -15.09,29.28 -36.98,33.13 -10.35,2.07 -39.35,5.92 -52.96,0.59 -1.48,-0.88 -2.66,-1.48 -3.55,-2.07 l -3.25,-2.37 c -1.19,-4.15 -135.21,-421.29 -179,-549.991 -24.55,-72.5 -48.81,-118.347 -69.23,-146.16 -20.11,-27.801 -36.68,-37.277 -46.15,-37.277 -3.55,1.777 -20.71,27.207 -8.58,97.637 10.95,63.902 77.22,403.251 77.81,406.801 0.3,14.21 -12.43,30.47 -38.16,39.36 -2.67,0.88 -5.33,1.76 -8.29,2.66 -0.3,0 -0.3,0 -0.3,0 -30.17,7.68 -74.85,6.21 -134.02,-15.69 -0.29,0 -0.59,-0.3 -0.89,-0.3 -4.73,-1.77 -9.76,-3.55 -14.79,-5.92 -44.67,-18.92 -87.87,-42.89 -129.88,-70.41 -2.07,-1.47 -3.85,-2.65 -5.62,-4.14 -21.89,-17.15 -23.97,-36.99 -8.29,-60.36 6.22,-9.75 26.63,-36.68 40.54,-39.64 l 3.84,-0.59 26.04,17.75 h 0.29 c 0.6,0.6 0.89,0.88 1.48,1.19 49.12,31.95 99.41,57.98 150.89,75.74 -20.41,-105.63 -54.73,-282.838 -62.72,-328.709 -13.61,-78.692 -3.26,-141.11 29.88,-180.461 20.71,-24.86 49.7,-38.469 81.66,-38.469 83.73,0 155.32,85.219 212.72,253.848 21.3,62.722 63.31,192.301 101.18,309.761 l 50.59,-518.64 c 0,-2.66 0.3,-5.32 0.6,-7.988 0,-0.59 0.29,-1.18 0.29,-2.071 2.07,-11.23 8.29,-19.531 18.05,-25.152 h 0.3 c 5.02,-2.957 11.24,-5.02 18.34,-6.207 10.35,-2.063 39.94,-5.621 53.25,0.308 1.19,0.282 2.37,0.879 3.26,1.469 l 3.25,2.371 195.56,514.48 v -42 c 0,-86.39 13.02,-162.73 38.47,-228.109 18.93,-50.293 45.26,-93.781 78.1,-130.769 23.67,-26.922 51.18,-50 81.66,-69.531 77.22,-49.403 176.03,-75.43 293.19,-75.43 h 8.88 35.8 1.48 5.62 v 0.277 c 27.81,2.082 41.71,17.473 41.42,45.571 0.29,11.543 -2.07,45.269 -12.13,55.332 l -2.67,2.648"
         style="fill:#ffffff;fill-opacity:1;fill-rule:nonzero;stroke:none"
         transform="matrix(0.13333333,0,0,-0.13333333,0,268.8)" />
      <path
         id="path8"
         d="m 1417.05,785.129 -4.14,0.312 -20.12,-16.859 -2.07,-1.781 -3.55,-2.961 c -111.24,-91.719 -221.6,-158.578 -337.28,-158.578 -134.023,0 -254.14,115.078 -332.839,310.648 l 1.183,1.192 -15.976,37.269 c -8.285,22.488 -15.68,45.869 -22.781,70.119 -3.844,13.9 -7.692,28.1 -11.243,42.6 -2.957,11.24 -5.621,22.79 -8.281,34.62 72.188,62.72 128.106,140.83 177.809,210.65 80.176,112.42 149.41,209.47 251.478,209.47 h 0.89 c 4.73,0 9.47,-0.3 14.2,-0.59 35.5,-3.25 73.08,-16.28 97.63,-35.51 l 5.33,-4.15 1.77,1.19 4.14,2.37 c 18.94,11.54 29.59,30.77 29.59,45.27 0,20.41 -17.45,46.45 -38.16,60.36 -24.56,16.55 -56.81,30.46 -96.75,34.02 -0.3,-0.31 -0.59,0 -0.89,0 -4.44,0.29 -8.87,0.59 -13.31,0.59 h -4.44 c -155.326,0 -247.041,-128.41 -335.502,-252.66 -67.457,-94.68 -136.39,-191.43 -236.093,-246.45 -0.028,-0.02 -0.051,-0.03 -0.079,-0.05 l 83.668,446.41 c 5.918,31.93 -6.214,50.87 -36.093,56.2 -11.243,2.36 -44.957,6.36 -56.496,-1.63 l -3.254,-2.37 -5.914,-33.14 -94.832,-505.96 h -0.012 c -22.789,-4.44 -47.047,-6.5 -72.789,-6.5 h -2.367 -1.481 c -31.656,-0.3 -47.336,-15.69 -47.336,-45.57 -0.293,-11.54 1.778,-45.269 11.539,-55.32 l 2.961,-2.66 h 30.473 3.254 2.957 c 18.344,0 35.801,0.879 52.664,2.66 h 0.008 L 292.801,489.02 c -5.914,-31.961 5.894,-51.258 35.773,-56.59 11.246,-2.36 44.957,-6.36 56.496,1.629 l 3.254,2.371 6.145,33.011 99.914,533.089 c 0.058,0.03 0.125,0.05 0.183,0.06 26.629,8.89 51.184,20.41 74.555,33.73 85.504,-336.09 263.02,-534.609 480.769,-534.609 145.56,0 277.52,79.277 402.96,181.949 0.3,0.289 0.89,0.602 1.18,0.879 1.48,1.191 2.67,2.371 3.85,3.563 20.41,19.527 21.3,40.23 3.55,61.828 -7.1,9.172 -30.47,33.73 -44.38,35.199"
         style="fill:#ffffff;fill-opacity:1;fill-rule:nonzero;stroke:none"
         transform="matrix(0.13333333,0,0,-0.13333333,0,268.8)" />
      <path
         id="path9"
         d="m 1495.75,1393.42 -0.3,-0.29 c -27.51,29.87 -66.86,55.03 -123.66,55.03 -90.83,0 -158.29,-68.94 -158.29,-157.11 0,-50.87 23.08,-94.37 55.33,-135.49 1.18,-1.77 2.66,-3.55 4.43,-5.33 0.89,-1.18 2.08,-2.67 3.55,-4.14 24.27,-28.41 56.22,-62.73 74.56,-85.8 0.89,-0.88 1.78,-1.78 2.37,-2.66 3.25,-4.15 6.21,-7.7 8.28,-10.95 11.24,-14.2 21.01,-28.11 27.22,-41.42 4.44,-9.471 7.1,-18.651 7.1,-27.209 0,-5.93 -1.18,-11.852 -3.25,-17.473 -4.15,-11.539 -11.54,-20.699 -21.3,-28.098 h -0.3 l -0.3,-0.3 c -9.17,-6.508 -20.11,-10.649 -31.36,-10.649 -13.31,0 -26.63,5.91 -36.98,14.797 -11.83,10.953 -19.53,26.031 -19.53,41.723 0,1.758 0,3.539 0.3,5.308 l 2.07,1.782 -1.78,0.879 -0.29,0.3 c 2.37,27.22 -4.44,49.72 -33.14,54.44 -10.65,2.37 -42.6,5.92 -55.03,-1.19 v -0.28 c -0.59,0 -0.88,-0.31 -1.48,-0.6 l -3.25,-2.37 -4.73,-26.92 -0.3,-1.77 -0.59,-2.08 v -0.59 c -1.19,-8.28 -1.78,-17.159 -1.78,-26.909 0,-11.852 1.19,-23.379 4.15,-34.629 8.58,-38.762 31.65,-72.481 63.61,-94.383 12.42,-8.578 26.33,-15.379 41.12,-20.109 15.09,-4.731 31.06,-7.391 47.63,-7.391 86.39,0 156.81,70.102 156.81,156.512 0,77.499 -60.65,139.919 -110.65,195.559 -37.58,41.41 -72.49,84.9 -72.49,117.44 0,33.45 29.59,57.11 58.29,57.11 13.01,0 27.21,-3.55 44.08,-20.72 0.29,-0.29 0.59,-0.59 1.18,-1.18 21.01,-20.11 41.72,-24.85 63.91,-6.81 9.17,6.81 34.32,29.89 35.79,43.79 l 0.3,3.86 v 0.29 l -21.3,25.74 v 0.29"
         style="fill:#ffffff;fill-opacity:1;fill-rule:nonzero;stroke:none"
         transform="matrix(0.13333333,0,0,-0.13333333,0,268.8)" />
      <path
         id="path10"
         d="m 4155.51,841.648 c 0,209.762 112.43,319.532 172.49,319.532 67.45,0 71,-65.97 71,-79 0,-86.391 -67.75,-206.211 -243.19,-252.961 -0.3,3.851 -0.3,7.992 -0.3,12.429 z m -216.57,578.412 c 67.46,0 70.71,-65.98 70.71,-79.3 0,-90.82 -89.94,-173.96 -243.19,-227.51 4.44,201.48 113.61,306.81 172.48,306.81 z m 650.3,-791.728 c -4.14,5.328 -10.06,10.059 -18.05,14.199 -5.32,3.258 -18.34,8.59 -31.36,12.141 -0.3,0.289 -0.59,0.289 -0.59,0.289 -7.69,2.078 -15.09,3.551 -21.01,3.551 -1.77,0 -3.25,-0.293 -4.73,-0.59 -0.59,0 -0.89,0 -1.48,-0.293 l -13.61,-28.399 -0.89,-1.781 -3.84,-7.097 c -13.61,-25.75 -67.16,-65.082 -116.28,-65.082 -107.69,0 -180.17,60.64 -208.58,170.109 241.42,58.281 333.73,232.543 333.73,356.801 0,90.53 -60.06,182.55 -174.55,182.55 -115.68,0 -276.04,-147.05 -276.04,-423.082 0,-10.359 0.3,-20.418 0.59,-29.878 -20.12,-1.77 -41.12,-2.668 -63.31,-2.668 -113.61,0 -189.94,72.187 -214.5,197.638 215.68,68.34 338.46,189.35 338.46,334.02 0,90.83 -59.76,182.85 -174.26,182.85 -115.68,0 -276.03,-147.05 -276.03,-423.38 0,-181.96 85.5,-394.679 326.33,-394.679 26.92,0 52.37,1.179 76.92,3.258 43.49,-186.989 181.07,-257.09 311.24,-257.09 89.06,0 177.22,62.422 207.7,120.101 l 3.25,6.211 c 0.3,0.309 0.3,0.899 0.59,1.188 1.19,2.082 2.07,4.453 3.26,6.511 7.1,16.86 6.21,31.059 -2.96,42.602"
         style="fill:#ffffff;fill-opacity:1;fill-rule:nonzero;stroke:none"
         transform="matrix(0.13333333,0,0,-0.13333333,0,268.8)" />
      <path
         id="path11"
         d="m 1419.71,1574.2 h 86.69 c 6.51,0 10.35,7.68 10.35,18.04 0,6.81 -2.07,11.55 -3.84,13.9 h -73.37 v 34.04 h 56.5 c 5.63,0 9.47,5.9 9.47,16.26 0,6.81 -2.07,13.02 -3.84,15.38 h -62.13 v 31.96 h 66.86 c 6.51,0 10.35,7.99 10.35,18.35 0,6.5 -2.07,11.24 -3.84,13.6 h -91.72 c -8.58,0 -13.01,-1.18 -15.97,-2.96 v -143.19 c 0,-13.6 7.39,-15.38 14.49,-15.38"
         style="fill:#ffffff;fill-opacity:1;fill-rule:nonzero;stroke:none"
         transform="matrix(0.13333333,0,0,-0.13333333,0,268.8)" />
      <path
         id="path12"
         d="m 1627.7,1574.2 c 9.47,0 18.94,3.54 23.08,10.05 l 28.7,43.79 27.22,-38.76 c 7.1,-9.76 18.34,-15.08 28.1,-15.08 13.02,0 17.46,1.47 23.08,5.91 l -53.85,76.92 48.52,71.9 c -2.36,3.84 -7.39,6.8 -18.63,6.8 -11.84,0 -18.64,-4.14 -23.67,-12.13 l -25.74,-38.46 -24.26,34.32 c -7.4,10.94 -13.61,16.27 -27.22,16.27 -12.72,0 -18.94,-3.85 -22.78,-8.57 l 48.81,-69.82 -48.81,-76.64 c 2.95,-3.84 7.39,-6.5 17.45,-6.5"
         style="fill:#ffffff;fill-opacity:1;fill-rule:nonzero;stroke:none"
         transform="matrix(0.13333333,0,0,-0.13333333,0,268.8)" />
      <path
         id="path13"
         d="m 1894.57,1708.21 h 26.62 c 11.54,0 21.9,-7.09 21.9,-24.55 0,-16.86 -9.47,-22.78 -25.15,-22.78 h -23.37 z m -18.94,-134.01 c 7.69,0 15.68,1.18 18.94,2.96 v 55.02 h 28.4 c 21.89,0 52.36,8.28 52.36,54.15 0,36.98 -25.14,49.4 -49.4,49.4 h -48.52 c -8.58,0 -12.73,-0.89 -17.16,-2.67 v -143.48 c 0,-12.42 7.1,-15.38 15.38,-15.38"
         style="fill:#ffffff;fill-opacity:1;fill-rule:nonzero;stroke:none"
         transform="matrix(0.13333333,0,0,-0.13333333,0,268.8)" />
      <path
         id="path14"
         d="m 2100.78,1574.2 h 86.39 c 6.8,0 10.35,7.68 10.35,18.04 0,6.81 -2.07,11.55 -3.55,13.9 h -73.66 v 34.04 h 56.5 c 5.63,0 9.47,5.9 9.47,16.26 0,6.81 -2.07,13.02 -3.84,15.38 h -62.13 v 31.96 h 66.86 c 6.8,0 10.35,7.99 10.35,18.35 0,6.5 -2.07,11.24 -3.55,13.6 h -92.01 c -8.58,0 -12.72,-1.18 -15.97,-2.96 v -143.19 c 0,-13.6 7.39,-15.38 14.79,-15.38"
         style="fill:#ffffff;fill-opacity:1;fill-rule:nonzero;stroke:none"
         transform="matrix(0.13333333,0,0,-0.13333333,0,268.8)" />
      <path
         id="path15"
         d="m 2340.13,1708.81 h 26.63 c 11.53,0 21.89,-7.69 21.89,-21.01 0,-14.2 -9.47,-22.49 -25.15,-22.49 h -23.37 z m -17.46,-134.61 c 6.22,0 14.5,1.18 17.46,3.25 v 61.83 h 18.93 c 19.23,-26.92 23.08,-65.08 51.78,-65.08 15.38,0 22.48,7.39 22.48,18.04 0,5.92 -1.18,9.46 -2.96,11.24 h -8.58 c -12.42,0 -21.89,23.38 -33.13,39.35 17.45,6.81 32.25,22.19 32.25,45.56 0,34.92 -25.15,47.34 -49.41,47.34 h -48.52 c -7.4,0 -13.61,-0.89 -17.16,-2.67 v -143.48 c 0,-13.6 8.28,-15.38 16.86,-15.38"
         style="fill:#ffffff;fill-opacity:1;fill-rule:nonzero;stroke:none"
         transform="matrix(0.13333333,0,0,-0.13333333,0,268.8)" />
      <path
         id="path16"
         d="m 2556.99,1574.2 c 8.88,0 14.5,1.47 18.64,3.54 v 146.16 c 0,8.87 -6.8,11.83 -15.09,11.83 -8.58,0 -15.09,-1.18 -18.93,-2.96 v -142.9 c 0,-12.13 6.51,-15.67 15.38,-15.67"
         style="fill:#ffffff;fill-opacity:1;fill-rule:nonzero;stroke:none"
         transform="matrix(0.13333333,0,0,-0.13333333,0,268.8)" />
      <path
         id="path17"
         d="m 2707.88,1574.2 h 86.39 c 6.8,0 10.36,7.68 10.36,18.04 0,6.81 -2.08,11.55 -3.56,13.9 h -73.67 v 34.04 h 56.51 c 5.92,0 9.47,5.9 9.47,16.26 0,6.81 -2.07,13.02 -3.55,15.38 h -62.43 v 31.96 h 66.87 c 6.8,0 10.36,7.99 10.36,18.35 0,6.5 -2.08,11.24 -3.56,13.6 h -91.71 c -8.58,0 -13.02,-1.18 -15.98,-2.96 v -143.19 c 0,-13.6 7.4,-15.38 14.5,-15.38"
         style="fill:#ffffff;fill-opacity:1;fill-rule:nonzero;stroke:none"
         transform="matrix(0.13333333,0,0,-0.13333333,0,268.8)" />
      <path
         id="path18"
         d="m 2927.7,1573.89 c 7.69,0 17.46,1.78 19.53,3.85 l -1.48,95.57 62.72,-90.53 c 3.55,-5.04 8.88,-8.58 16.27,-8.58 9.17,0 14.8,1.18 17.46,2.66 v 147.33 c 0,8.87 -9.76,11.54 -17.75,11.54 -7.99,0 -13.02,-1.48 -16.57,-4.14 l 0.89,-95.56 -61.25,90.82 c -2.96,4.74 -8.28,8.88 -15.97,8.88 -7.1,0 -13.91,-1.18 -18.35,-2.96 v -143.19 c 0,-13.6 7.4,-15.69 14.5,-15.69"
         style="fill:#ffffff;fill-opacity:1;fill-rule:nonzero;stroke:none"
         transform="matrix(0.13333333,0,0,-0.13333333,0,268.8)" />
      <path
         id="path19"
         d="m 3220.01,1571.83 c 24.56,0 38.76,7.99 44.38,11.83 8.28,5.62 11.83,10.65 11.83,18.94 0,9.76 -7.69,13.9 -13.31,13.9 -9.17,-7.4 -24.26,-13.61 -40.83,-13.61 -20.71,0 -38.76,11.83 -38.76,50.89 0,39.95 17.75,51.78 36.69,51.78 18.93,0 34.61,-6.81 43.79,-13.92 5.32,3.25 9.46,8.89 9.46,17.47 0,8.28 -3.84,13.31 -10.06,17.45 -9.76,6.5 -17.75,11.24 -44.67,11.24 -39.05,0 -68.94,-23.96 -68.94,-83.14 0,-58.27 30.77,-82.83 70.42,-82.83"
         style="fill:#ffffff;fill-opacity:1;fill-rule:nonzero;stroke:none"
         transform="matrix(0.13333333,0,0,-0.13333333,0,268.8)" />
      <path
         id="path20"
         d="m 3394.57,1574.2 h 86.39 c 6.8,0 10.35,7.68 10.35,18.04 0,6.81 -2.07,11.55 -3.55,13.9 h -73.67 v 34.04 h 56.51 c 5.62,0 9.47,5.9 9.47,16.26 0,6.81 -2.07,13.02 -3.85,15.38 h -62.13 v 31.96 h 66.87 c 6.8,0 10.35,7.99 10.35,18.35 0,6.5 -2.07,11.24 -3.55,13.6 h -92.01 c -8.58,0 -12.72,-1.18 -15.68,-2.96 v -143.19 c 0,-13.6 7.1,-15.38 14.5,-15.38"
         style="fill:#ffffff;fill-opacity:1;fill-rule:nonzero;stroke:none"
         transform="matrix(0.13333333,0,0,-0.13333333,0,268.8)" />
      <path
         id="path21"
         d="m 1760.54,478.93 c -8.58,0 -13.02,-1.18 -15.97,-3.258 V 332.781 c 0,-13.621 7.39,-15.383 14.49,-15.383 7.99,0 17.46,1.473 19.53,3.532 V 381 h 56.8 c 6.51,0 10.36,7.988 10.36,18.352 0,6.5 -2.07,11.238 -3.85,13.609 h -63.31 v 34.019 h 64.2 c 6.81,0 10.36,7.989 10.36,18.34 0,6.5 -2.08,11.239 -3.55,13.61 h -89.06"
         style="fill:#ffffff;fill-opacity:1;fill-rule:nonzero;stroke:none"
         transform="matrix(0.13333333,0,0,-0.13333333,0,268.8)" />
      <path
         id="path22"
         d="m 1994.57,349.352 v 118.039 c 0,8.871 -9.77,11.539 -17.16,11.539 -7.4,0 -13.61,-1.489 -16.87,-2.961 V 332.191 c 0,-10.953 5.33,-14.793 14.5,-14.793 h 70.41 c 13.61,0 17.46,7.684 17.46,18.043 0,6.797 -2.07,11.539 -3.85,13.911 h -64.49"
         style="fill:#ffffff;fill-opacity:1;fill-rule:nonzero;stroke:none"
         transform="matrix(0.13333333,0,0,-0.13333333,0,268.8)" />
      <path
         id="path23"
         d="m 2225.63,343.719 c -18.05,0 -35.8,14.203 -35.8,53.261 0,39.942 17.46,54.43 35.5,54.43 19.53,0 35.8,-14.488 35.8,-54.43 0,-39.941 -15.08,-53.261 -35.5,-53.261 z M 2225.33,481 c -37.87,0 -68.93,-23.969 -68.93,-83.141 0,-58.277 30.18,-82.828 69.23,-82.828 38.76,0 69.53,23.367 69.53,82.828 0,59.172 -29.89,83.141 -69.83,83.141"
         style="fill:#ffffff;fill-opacity:1;fill-rule:nonzero;stroke:none"
         transform="matrix(0.13333333,0,0,-0.13333333,0,268.8)" />
      <path
         id="path24"
         d="m 2461.13,408.52 h -23.37 V 452 h 26.63 c 11.54,0 21.89,-7.68 21.89,-21 0,-14.199 -9.47,-22.48 -25.15,-22.48 z m 58.29,-61.84 c -12.43,0 -21.9,23.371 -33.14,39.351 17.46,6.797 32.25,22.188 32.25,45.559 0,34.922 -25.15,47.34 -49.41,47.34 h -48.52 c -7.4,0 -13.61,-0.891 -17.16,-2.668 V 332.781 c 0,-13.621 7.99,-15.383 16.87,-15.383 6.21,0 14.49,1.18 17.45,3.243 v 61.828 h 18.94 c 19.23,-26.91 23.07,-65.071 51.77,-65.071 15.39,0 22.49,7.391 22.49,18.043 0,5.911 -1.19,9.457 -2.96,11.239 h -8.58"
         style="fill:#ffffff;fill-opacity:1;fill-rule:nonzero;stroke:none"
         transform="matrix(0.13333333,0,0,-0.13333333,0,268.8)" />
      <path
         id="path25"
         d="m 2658.17,478.93 c -8.57,0 -15.08,-1.18 -18.93,-3.258 V 333.07 c 0,-12.14 6.51,-15.672 15.38,-15.672 8.88,0 14.21,1.473 18.64,3.532 v 146.16 c 0,8.879 -6.8,11.84 -15.09,11.84"
         style="fill:#ffffff;fill-opacity:1;fill-rule:nonzero;stroke:none"
         transform="matrix(0.13333333,0,0,-0.13333333,0,268.8)" />
      <path
         id="path26"
         d="m 2842.49,346.68 h -17.45 v 100.89 h 15.38 c 26.04,0 44.68,-14.5 44.68,-53.55 0,-33.43 -15.39,-47.34 -42.61,-47.34 z m -2.07,132.25 h -32.24 c -8.59,0 -14.21,-1.18 -17.17,-2.961 V 332.781 c 0,-13.621 7.99,-15.383 16.87,-15.383 h 35.8 c 44.38,0 75.44,21 75.44,77.211 0,60.36 -30.47,84.321 -78.7,84.321"
         style="fill:#ffffff;fill-opacity:1;fill-rule:nonzero;stroke:none"
         transform="matrix(0.13333333,0,0,-0.13333333,0,268.8)" />
      <path
         id="path27"
         d="m 3064.68,376.57 18.64,55.309 20.71,-55.309 z m 21.6,102.36 c -10.65,0 -15.09,-2.668 -19.82,-5.328 l -53.85,-151.481 c 3.26,-3.25 7.69,-4.723 16.57,-4.723 11.24,0 16.57,2.653 19.53,11.231 l 6.21,19.543 h 59.76 l 6.22,-16.883 c 3.25,-10.359 10.35,-13.891 19.82,-13.891 6.21,0 13.61,1.18 17.16,7.09 l -53.55,143.203 c -2.66,6.5 -7.99,11.239 -18.05,11.239"
         style="fill:#ffffff;fill-opacity:1;fill-rule:nonzero;stroke:none"
         transform="matrix(0.13333333,0,0,-0.13333333,0,268.8)" />
      <path
         id="path28"
         d="m 4623.56,655.082 v -23.504 c -0.66,-0.34 -1.82,-0.508 -3.5,-0.508 -0.74,0 -1.37,0.2 -1.88,0.602 -0.51,0.398 -0.77,1.148 -0.77,2.258 v 21.152 h -8.08 c -0.19,0.398 -0.36,0.859 -0.49,1.367 -0.12,0.512 -0.18,1.051 -0.18,1.629 0,0.742 0.19,1.41 0.59,2.004 0.4,0.598 1.14,0.898 2.22,0.898 h 20.12 c 0.15,-0.23 0.3,-0.55 0.45,-0.96 0.16,-0.418 0.24,-0.93 0.24,-1.559 0,-0.973 -0.16,-1.77 -0.49,-2.422 -0.33,-0.629 -0.8,-0.957 -1.44,-0.957 h -6.79"
         style="fill:#ffffff;fill-opacity:1;fill-rule:nonzero;stroke:none"
         transform="matrix(0.13333333,0,0,-0.13333333,0,268.8)" />
      <path
         id="path29"
         d="m 4651.3,632.309 c -0.43,0 -0.84,0.043 -1.22,0.132 -0.39,0.079 -0.74,0.25 -1.08,0.489 -0.32,0.242 -0.62,0.582 -0.91,1.019 -0.29,0.449 -0.55,1.02 -0.77,1.731 l -4.44,13.511 -1.03,-15.769 c -0.05,-0.883 -0.37,-1.492 -0.94,-1.844 -0.56,-0.34 -1.37,-0.508 -2.39,-0.508 -0.57,0 -1.14,0.039 -1.71,0.129 -0.57,0.082 -1.01,0.192 -1.33,0.34 l 2.06,25.133 c 0.1,1.297 0.53,2.348 1.25,3.137 0.73,0.781 1.77,1.171 3.14,1.171 0.74,0 1.32,-0.039 1.71,-0.128 0.41,-0.082 0.82,-0.204 1.24,-0.34 l 6.42,-19.453 4.35,16.453 c 0.34,1.289 0.84,2.179 1.5,2.699 0.65,0.519 1.49,0.769 2.51,0.769 0.97,0 1.71,-0.05 2.23,-0.148 0.51,-0.102 1.05,-0.262 1.62,-0.492 l 4.02,-28.41 c -0.38,-0.258 -0.85,-0.461 -1.43,-0.621 -0.58,-0.168 -1.23,-0.239 -1.95,-0.239 -0.88,0 -1.64,0.149 -2.26,0.45 -0.63,0.3 -1,0.929 -1.11,1.902 l -1.54,15.769 -3.72,-13.472 c -0.23,-0.821 -0.49,-1.469 -0.79,-1.938 -0.29,-0.472 -0.63,-0.812 -0.98,-1.019 -0.36,-0.223 -0.74,-0.34 -1.16,-0.383 -0.41,-0.051 -0.84,-0.07 -1.29,-0.07"
         style="fill:#ffffff;fill-opacity:1;fill-rule:nonzero;stroke:none"
         transform="matrix(0.13333333,0,0,-0.13333333,0,268.8)" />
    </g>
  </g>
</svg>
